<svg width="41" height="34" viewBox="0 0 41 34" fill="none" xmlns="http://www.w3.org/2000/svg">
<path d="M26.0695 9.07266H27.3328L30.893 5.5125L31.1227 4.01953C28.3664 1.49297 24.5766 0 20.4422 0C13.0922 0 6.77578 5.05312 4.93828 11.8289C5.28281 11.5992 6.20157 11.7141 6.20157 11.7141L13.3219 10.5656C13.3219 10.5656 13.6664 9.99141 13.8961 9.99141C17.1117 6.5461 22.3945 6.20156 26.0695 9.07266Z" fill="#EA4535"/>
<path d="M36.0609 11.8289C35.1422 8.84297 33.5344 6.08672 31.1227 4.01953L26.0695 9.07266C28.2516 10.7953 29.4 13.3219 29.4 16.0781V16.9969C31.8117 16.9969 33.8789 18.9492 33.8789 21.4758C33.8789 23.8875 31.9266 25.8398 29.4 25.8398H20.4422L19.5234 26.7586V32.1562L20.4422 33.075H29.4C35.8312 33.075 40.9992 27.907 40.9992 21.4758C40.9992 17.5711 39.0469 14.0109 35.9461 11.9438L36.0609 11.8289Z" fill="#557EBF"/>
<path d="M11.5992 32.9602H20.557V25.8398H11.5992C10.9102 25.8398 10.3359 25.725 9.76172 25.4953L8.49844 25.8398L4.93828 29.4L4.59375 30.5484C6.54609 32.1562 9.07265 32.9602 11.5992 32.9602Z" fill="#36A852"/>
<path d="M11.5992 9.76172C5.16797 9.76172 0 14.9297 0 21.3609C0 25.0359 1.72266 28.4813 4.59375 30.6633L9.76172 25.4953C8.1539 24.6914 7.12032 23.1984 7.12032 21.3609C7.12032 18.9492 9.07266 16.882 11.5992 16.882C13.3219 16.9969 14.9297 18.0305 15.6188 19.5234L20.7867 14.3555C18.7195 11.5992 15.2742 9.76172 11.5992 9.76172Z" fill="#F9BC15"/>
</svg>
