<svg width="41" height="42" viewBox="0 0 41 42" fill="none" xmlns="http://www.w3.org/2000/svg">
<path d="M25 30.7354L24.2748 32.4682L24.0599 32.9812L22.6781 36.286L21.2943 39.5935L20.8519 40.6478L20.4774 41.5433L19.6612 39.5935L18.2773 36.286L17.4269 34.2544L16.8928 32.9812L15.9387 30.6982L15.511 29.6763L14.1271 26.3695L14.0039 26.0755L12.7425 23.0647L12.3373 22.0895L11.9285 23.0647L10.581 26.285L10.5467 26.3695L9.16282 29.6763H0L0.309393 28.935L1.38457 26.3695L2.76634 23.0647L3.73233 20.7554L4.15022 19.7599L5.53199 16.4524L6.91586 13.1475L7.15526 12.5758L7.75444 11.1444L8.29763 9.84272L9.68221 6.5352L10.581 4.38944L11.0661 3.23038L12.2792 0.333771L13.4915 3.23038L14.0039 4.45499L14.8733 6.5352L16.2572 9.84272L16.8592 11.2816L17.4269 12.6366L17.6417 13.1475L19.0235 16.4524L20.4074 19.7599L20.4634 19.8903L20.8519 20.8209L21.792 23.0647L23.1737 26.3695L24.2748 29.0025L24.5576 29.6763L25 30.7354Z" fill="#F0B657"/>
<path d="M41 29.0846H31.9976L31.0679 26.9603L30.5694 25.8211L29.1405 22.5595L28.6023 21.3256L27.7145 19.298L27.5325 18.8831L26.2864 16.0338L24.8582 12.7723L24 10.8087V10.4338L24.4038 9.51074L25.8327 6.24654L27.2587 2.98501L27.5325 2.36139L28.4203 0.333771L29.5797 2.98501L31.0079 6.24654L31.0679 6.38461L32.4339 9.51074L33.1021 11.0368L33.8628 12.7723L34.6003 14.4597L35.2881 16.0338L36.717 19.298L38.1328 22.5315V22.5595H38.1451L39.5711 25.8211L41 29.0846Z" fill="#EB1CD2"/>
</svg>
